<svg version="1.2" xmlns="http://www.w3.org/2000/svg" viewBox="0 0 321 100" width="321" height="100">
	<title>Airbnb-logo-svg</title>
	<style>
		.s0 { fill: none } 
		.s1 { fill: #ffffff } 
	</style>
	<path id="Layer" class="s0" d="m141.9 48.9v13.4c-1.5 2.2-4.5 4.1-8.1 4.1-6.4 0-11.3-4-11.3-10.8 0-6.8 4.9-10.8 11.3-10.8 3.5 0 6.7 2 8.1 4.1z"/>
	<path id="Layer" class="s0" d="m85.6 73.2c0.8 2.6 1.1 5.1 0.7 7.7-0.7 5.2-4.2 9.7-9.1 11.7-2.4 1-5 1.3-7.6 1-2.5-0.3-5-1.1-7.6-2.6-3.6-2-7.2-5.1-11.4-9.7 6.6-8.1 10.6-15.5 12.1-22.1 0.7-3.1 0.8-5.9 0.5-8.5-0.4-2.5-1.3-4.8-2.7-6.8-3.1-4.5-8.3-7.1-14.1-7.1-5.8 0-11 2.7-14.1 7.1-1.4 2-2.3 4.3-2.7 6.8-0.4 2.6-0.3 5.5 0.5 8.5 1.5 6.6 5.6 14.1 12.1 22.2-4.1 4.6-7.8 7.7-11.4 9.7-2.6 1.5-5.1 2.3-7.6 2.6-2.7 0.3-5.3-0.1-7.6-1-4.9-2-8.4-6.5-9.1-11.7-0.3-2.5-0.1-5 0.9-7.8 0.3-1 0.8-2 1.3-3.2 0.7-1.6 1.5-3.3 2.3-5l0.1-0.2c6.9-14.9 14.3-30.1 22-44.9l0.3-0.6c0.8-1.5 1.6-3.1 2.4-4.6 0.8-1.6 1.7-3.1 2.8-4.4 2.1-2.4 4.9-3.7 8-3.7 3.1 0 5.9 1.3 8 3.7 1.1 1.3 2 2.8 2.8 4.4 0.8 1.5 1.6 3.1 2.4 4.6l0.3 0.6c7.6 14.9 15 30.1 21.9 45v0.1c0.8 1.6 1.5 3.4 2.3 5 0.5 1.2 1 2.2 1.3 3.2z"/>
	<path id="Layer" class="s0" d="m56.5 57.6c-1.2 5.3-4.7 11.7-10.1 18.6-5.4-6.8-8.9-13.2-10.1-18.6-0.5-2.3-0.6-4.3-0.3-6.1 0.2-1.6 0.8-3 1.6-4.2 1.9-2.7 5.1-4.4 8.8-4.4 3.7 0 7 1.6 8.8 4.4 0.8 1.2 1.4 2.6 1.6 4.2 0.3 1.8 0.2 3.9-0.3 6.1z"/>
	<path id="Layer" class="s0" d="m228.5 55.5c0 6.8-4.9 10.8-11.3 10.8-3.7 0-6.6-1.9-8.1-4.1v-13.4c1.5-2 4.7-4.1 8.1-4.1 6.4 0 11.3 4 11.3 10.8z"/>
	<path id="Layer" class="s0" d="m310.5 55.5c0 6.8-4.9 10.8-11.3 10.8-3.7 0-6.6-1.9-8.1-4.1v-13.4c1.5-2 4.7-4.1 8.1-4.1 6.4 0 11.3 4 11.3 10.8z"/>
	<path id="Layer" fill-rule="evenodd" class="s1" d="m143.3 36.8c0.7 0 8.1 0 8.1 0v37.6h-8.1c-0.8 0-1.4-0.6-1.4-1.4v-1.7c0 0-3 4.1-9.7 4.1-11 0-19.4-8.4-19.4-19.8 0-11.5 8.5-19.8 19.4-19.8 6.6 0 9.7 4 9.7 4 0 0 0-1 0-1.6 0-0.7 0.6-1.4 1.4-1.4zm-1.4 12.1c-1.4-2.1-4.6-4.1-8.1-4.1-6.4 0-11.3 4-11.3 10.8 0 6.8 4.9 10.8 11.3 10.8 3.6 0 6.6-1.9 8.1-4.1z"/>
	<path id="Layer" fill-rule="evenodd" class="s1" d="m91.5 71c1.3 3.7 1.7 7.2 0.9 10.7-1.1 7.4-6 13.8-13 16.6-2.5 1.1-5.3 1.6-8.1 1.6-0.8 0-1.8-0.1-2.6-0.2-3.3-0.4-6.7-1.5-10-3.4-4-2.3-8-5.6-12.4-10.4-4.4 4.8-8.3 8.1-12.4 10.4-3.3 1.9-6.7 3-10 3.4-0.8 0.1-1.8 0.2-2.6 0.2-2.8 0-5.5-0.5-8.1-1.6-6.9-2.8-11.9-9.1-13-16.6-0.5-3.6-0.1-7.1 1.2-10.8q0.8-2 1.5-3.6c0.8-1.8 1.6-3.5 2.3-5.1l0.1-0.2c6.9-15 14.4-30.2 22.1-45.2l0.3-0.6c0.8-1.5 1.6-3.1 2.4-4.7 1-1.8 2.1-3.7 3.6-5.5 3.3-3.8 7.8-6 12.8-6 4.9 0 9.5 2.2 12.7 6.2 1.6 1.8 2.6 3.7 3.6 5.5 0.8 1.6 1.6 3.2 2.4 4.7l0.3 0.6c7.8 15 15.2 30.2 22.1 45.2l0.1 0.1c0.7 1.6 1.5 3.3 2.3 5.1 0.5 1.1 1 2.4 1.5 3.6zm-5.9 2.2c-0.3-1-0.8-2-1.3-3.2-0.8-1.6-1.5-3.4-2.3-5v-0.1c-6.9-14.9-14.3-30.1-21.9-45l-0.3-0.6c-0.8-1.5-1.6-3.1-2.4-4.6-0.8-1.6-1.7-3.1-2.8-4.4-2.1-2.4-4.9-3.7-8-3.7-3.1 0-5.9 1.3-8 3.7-1.1 1.3-2 2.8-2.8 4.4-0.8 1.5-1.6 3.1-2.4 4.6l-0.3 0.6c-7.7 14.8-15.1 30-22 44.9l-0.1 0.2c-0.8 1.7-1.6 3.4-2.3 5-0.5 1.2-1 2.2-1.3 3.2-1 2.8-1.2 5.3-0.9 7.8 0.7 5.2 4.2 9.7 9.1 11.7 2.3 0.9 4.9 1.3 7.6 1 2.5-0.3 5-1.1 7.6-2.6 3.6-2 7.3-5.1 11.4-9.7-6.5-8.1-10.6-15.6-12.1-22.2-0.8-3-0.9-5.9-0.5-8.5 0.4-2.5 1.3-4.8 2.7-6.8 3.1-4.4 8.3-7.1 14.1-7.1 5.8 0 11 2.6 14.1 7.1 1.4 2 2.3 4.3 2.7 6.8 0.3 2.6 0.2 5.4-0.5 8.5-1.5 6.6-5.5 14-12.1 22.1 4.2 4.6 7.8 7.7 11.4 9.7 2.6 1.5 5.1 2.3 7.6 2.6 2.6 0.3 5.2 0 7.6-1 4.9-2 8.4-6.5 9.1-11.7 0.4-2.6 0.1-5.1-0.7-7.7zm-29.1-15.6c0.5-2.2 0.6-4.3 0.3-6.1-0.2-1.6-0.8-3-1.6-4.2-1.8-2.8-5.1-4.4-8.8-4.4-3.7 0-6.9 1.7-8.8 4.4-0.8 1.2-1.4 2.6-1.6 4.2-0.3 1.8-0.2 3.8 0.3 6.1 1.2 5.4 4.7 11.8 10.1 18.6 5.4-6.9 8.9-13.3 10.1-18.6z"/>
	<path id="Layer" fill-rule="evenodd" class="s1" d="m320.1 55.6c0 11.4-8.5 19.8-19.4 19.8-6.6 0-9.7-4.1-9.7-4.1v1.7c0 0.7-0.6 1.4-1.4 1.4-0.7 0-8.1 0-8.1 0v-55.7h9.6v21.1c0 0 3.1-4 9.7-4 10.8 0 19.3 8.4 19.3 19.8zm-9.6-0.1c0-6.8-4.9-10.8-11.3-10.8-3.4 0-6.6 2.1-8.1 4.1v13.4c1.5 2.2 4.4 4.1 8.1 4.1 6.4 0 11.3-4 11.3-10.8z"/>
	<path id="Layer" class="s1" d="m276.5 52.1v22.4h-9.6v-21.3c0-6.2-2-8.7-7.4-8.7-2.9 0-5.9 1.5-7.8 3.7v26.2h-9.6v-37.6h7.6c0.8 0 1.4 0.7 1.4 1.4v1.6c2.8-2.9 6.5-4 10.2-4q6.3 0 10.5 3.6c3.4 2.8 4.7 6.4 4.7 12.7z"/>
	<path id="Layer" class="s1" d="m191.2 35.8c2.9 0 4.4 0.5 4.4 0.5v8.9c0 0-8-2.7-13 3v26.3h-9.6v-37.7c0 0 7.4 0 8.1 0 0.8 0 1.4 0.7 1.4 1.4v1.6c1.8-2.1 5.7-4 8.7-4z"/>
	<path id="Layer" fill-rule="evenodd" class="s1" d="m238.1 55.6c0 11.4-8.5 19.8-19.4 19.8-6.6 0-9.7-4.1-9.7-4.1v1.7c0 0.7-0.6 1.4-1.4 1.4-0.7 0-8.1 0-8.1 0v-55.7h9.6v21.1c0 0 3.1-4 9.7-4 10.9 0 19.4 8.4 19.3 19.8zm-9.6-0.1c0-6.8-4.9-10.8-11.3-10.8-3.4 0-6.6 2.1-8.1 4.1v13.4c1.5 2.2 4.4 4.1 8.1 4.1 6.4 0 11.3-4 11.3-10.8z"/>
	<circle id="Layer" class="s1" cx="162.2" cy="25.1" r="6.5"/>
	<path id="Layer" class="s1" d="m157.4 36.8h9.6v37.6h-9.6z"/>
</svg>