<svg version="1.2" xmlns="http://www.w3.org/2000/svg" viewBox="0 0 400 125" width="400" height="125"><style>tspan{white-space:pre}.a{opacity:.3;fill:none}.b{fill:none}.c{fill:#ff5a5f}.d{font-size: 79px;fill: #ff5a5f;font-weight: 700;font-family: ".", "."}</style><path class="a" d="m176.9 61.4v16.7c-1.8 2.8-5.6 5.1-10.1 5.1-8 0-14.1-5-14.1-13.4 0-8.5 6.1-13.5 14.1-13.5 4.4 0 8.4 2.5 10.1 5.1z"/><path class="b" d="m106.7 91.7c1 3.3 1.4 6.4 0.9 9.6-0.9 6.5-5.2 12.1-11.3 14.6-3 1.2-6.3 1.6-9.5 1.2-3.1-0.3-6.3-1.3-9.5-3.2-4.5-2.5-9-6.4-14.2-12.1 8.2-10.1 13.2-19.3 15.1-27.5 0.8-3.9 1-7.4 0.6-10.6-0.5-3.2-1.6-6-3.4-8.5-3.8-5.6-10.3-8.9-17.5-8.9-7.3 0-13.8 3.4-17.6 8.9-1.8 2.5-2.9 5.3-3.4 8.5-0.5 3.2-0.4 6.8 0.6 10.6 1.9 8.2 7 17.5 15.1 27.6-5.1 5.8-9.7 9.6-14.2 12.1-3.2 1.9-6.4 2.9-9.5 3.3-3.3 0.3-6.6-0.2-9.4-1.3-6.2-2.5-10.5-8.1-11.4-14.6-0.4-3.1-0.1-6.2 1.1-9.7 0.4-1.2 1-2.5 1.6-4 0.9-2 1.9-4.1 2.9-6.2l0.1-0.3c8.6-18.5 17.9-37.5 27.5-55.9l0.3-0.8c1-1.9 2-3.9 3-5.7 1-2 2.2-3.9 3.5-5.5 2.6-3 6.1-4.6 10-4.6 3.9 0 7.4 1.6 10 4.6 1.3 1.6 2.5 3.5 3.5 5.5 1 1.8 2 3.8 3 5.7l0.3 0.8c9.5 18.5 18.7 37.5 27.3 56.1v0.1c1 2 1.9 4.2 2.9 6.2 0.6 1.5 1.3 2.8 1.6 4z"/><path class="b" d="m70.4 72.3c-1.4 6.6-5.8 14.5-12.5 23.1-6.8-8.4-11.1-16.4-12.6-23.1-0.7-2.9-0.8-5.4-0.4-7.6 0.2-2 1-3.8 2-5.3 2.4-3.4 6.3-5.5 11-5.5 4.6 0 8.7 2 10.9 5.5 1 1.5 1.8 3.3 2 5.3 0.4 2.2 0.3 4.8-0.4 7.6z"/><path class="a" d="m284.9 69.6c0 8.5-6.1 13.5-14.1 13.5-4.6 0-8.2-2.4-10.1-5.1v-16.7c1.9-2.5 5.9-5.1 10.1-5.1 8 0 14.1 5 14.1 13.4z"/><path class="a" d="m387.1 69.6c0 8.5-6.1 13.5-14 13.5-4.7 0-8.3-2.4-10.1-5.1v-16.7c1.8-2.5 5.8-5.1 10.1-5.1 7.9 0 14 5 14 13.4z"/><path fill-rule="evenodd" class="c" d="m398.4 89c1.6 4.6 2.1 8.9 1.1 13.3-1.4 9.2-7.5 17.2-16.2 20.7-3.1 1.4-6.6 2-10.1 2-1 0-2.3-0.1-3.3-0.2-4.1-0.5-8.3-1.9-12.4-4.3-5-2.9-10-7-15.5-13-5.5 6-10.3 10.1-15.5 13-4.1 2.4-8.3 3.8-12.4 4.3-1 0.1-2.3 0.2-3.3 0.2-3.5 0-6.8-0.6-10.1-2-8.6-3.5-14.8-11.3-16.2-20.7-0.6-4.5-0.1-8.8 1.5-13.5q1-2.4 1.9-4.4c1-2.3 2-4.4 2.9-6.4l0.1-0.3c8.6-18.7 17.9-37.6 27.5-56.3l0.4-0.8c1-1.8 2-3.8 3-5.8 1.3-2.3 2.6-4.6 4.5-6.9 4.1-4.7 9.7-7.5 16-7.5 6.1 0 11.8 2.8 15.8 7.8 2 2.2 3.2 4.6 4.5 6.8 1 2 2 4 3 5.9l0.3 0.7c9.8 18.7 19 37.7 27.6 56.4l0.1 0.1c0.9 2 1.9 4.1 2.9 6.4 0.6 1.3 1.2 3 1.9 4.5zm-7.4 2.7c-0.4-1.2-1-2.5-1.6-4-1-2-1.9-4.2-2.9-6.2v-0.1c-8.6-18.6-17.8-37.6-27.3-56.1l-0.4-0.8c-1-1.9-2-3.9-3-5.7-0.9-2-2.1-3.9-3.4-5.5-2.7-3-6.2-4.6-10-4.6-3.9 0-7.4 1.6-10 4.6-1.4 1.6-2.5 3.5-3.5 5.5-1 1.8-2 3.8-3 5.7l-0.4 0.8c-9.6 18.4-18.8 37.4-27.4 55.9l-0.1 0.3c-1 2.1-2 4.2-2.9 6.2-0.6 1.5-1.2 2.8-1.6 4-1.2 3.5-1.5 6.6-1.1 9.7 0.9 6.5 5.2 12.1 11.3 14.6 2.9 1.1 6.1 1.6 9.5 1.3 3.1-0.4 6.2-1.4 9.5-3.3 4.5-2.5 9.1-6.3 14.2-12.1-8.1-10.1-13.2-19.4-15.1-27.6-1-3.8-1.1-7.4-0.6-10.6 0.5-3.2 1.6-6 3.4-8.5 3.8-5.5 10.3-8.9 17.5-8.9 7.3 0 13.7 3.3 17.6 8.9 1.8 2.5 2.9 5.3 3.4 8.5 0.4 3.2 0.2 6.7-0.6 10.6-1.9 8.2-6.9 17.4-15.1 27.5 5.2 5.7 9.7 9.6 14.2 12.1 3.2 1.9 6.3 2.9 9.5 3.2 3.2 0.4 6.4 0 9.4-1.2 6.1-2.5 10.5-8.1 11.4-14.6 0.5-3.2 0.1-6.3-0.9-9.6zm-36.3-19.4c0.6-2.8 0.8-5.4 0.4-7.6-0.2-2-1-3.8-2-5.3-2.2-3.5-6.4-5.5-11-5.5-4.6 0-8.6 2.1-10.9 5.5-1 1.5-1.8 3.3-2 5.3-0.4 2.2-0.3 4.7 0.3 7.6 1.5 6.7 5.9 14.7 12.6 23.1 6.8-8.6 11.1-16.5 12.6-23.1z"/><text style="transform:matrix(1.247,0,0,1.247,-3.741,95.201)" ><tspan x="0" y="0" class="d">G</tspan><tspan  y="0" class="d">u</tspan><tspan  y="0" class="d">e</tspan><tspan  y="0" class="d">s</tspan><tspan  y="0" class="d">t</tspan><tspan  y="0" class="d">
</tspan></text></svg>